<svg xmlns="http://www.w3.org/2000/svg" viewBox="0 0 82.724 52.323">
  <path
    d="m9.532 43.903 1.263.15c.571.06.631.541.631.842v1.473H5.622v-1.473c0-.3.06-.782.631-.842l1.263-.15V42.64H0v1.263l1.263.15c.571.06.631.541.631.842v4.871c0 .3-.06.782-.631.842L0 50.758v1.263h7.522v-1.263l-1.263-.15c-.571-.06-.631-.541-.631-.842V48.29h5.774v1.473c0 .3-.06.782-.631.842l-1.263.15v1.263h7.514v-1.263l-1.263-.15c-.571-.06-.631-.541-.631-.842v-4.871c0-.3.06-.782.631-.842l1.263-.15v-1.26h-7.52v1.263ZM59.6 42.64h-9.26v1.263l1.113.12a.659.659 0 0 1 .662.752v4.962c0 .3-.06.782-.632.842l-1.263.15v1.261h9.382c3.368 0 6.134-1.353 6.134-4.691s-2.766-4.661-6.134-4.661m-.692 7.578h-3.157v-5.774h3.157c1.864 0 2.5.872 2.5 2.887 0 1.985-.631 2.887-2.5 2.887"
    fill="#fff" />
  <path
    d="M81.491 50.609a1.207 1.207 0 0 1-.962-.722l-4.33-6.615a1.033 1.033 0 0 0-.992-.631h-7.1v1.263l1.714.18a.489.489 0 0 1 .3.782l-3.218 5.2a.919.919 0 0 1-.662.511l-1.263.15v1.263h5.984v-1.263l-1.022-.09c-.451-.06-.692-.361-.451-.722l.481-.782h5.774l.421.631c.391.571-.09.812-.511.842l-1.052.12v1.264h8.119v-1.263Zm-10.525-3.127 1.774-2.892 1.894 2.887ZM43.633 43.903l1.263.15c.571.06.631.541.631.842v4.691l-4.962-6.555c-.21-.3-.421-.391-.962-.391h-6.435v1.263l1.263.15c.571.06.631.541.631.842v4.871c0 .3-.06.782-.631.842l-1.263.15v1.263h6.014V50.76l-1.263-.15c-.571-.06-.631-.541-.631-.842v-4.691l4.962 6.525a.98.98 0 0 0 .962.391h4.571v-7.127c0-.3.06-.782.631-.842l1.263-.15V42.61H43.69l-.06 1.293ZM25.079 42.309c-6.1 0-7.668 2.676-7.668 4.992s1.564 5.022 7.668 5.022 7.668-2.676 7.668-4.992c0-2.345-1.564-5.022-7.668-5.022m0 8.239c-2.376 0-3.338-.992-3.338-3.218s.992-3.218 3.338-3.218c2.376 0 3.338.992 3.338 3.218s-.962 3.218-3.338 3.218M51.751 3.097c-1.022 4.6-1.443 6.736-2.285 10.044-.812 3.187-1.443 6.164-2.526 7.608a4.824 4.824 0 0 1-3.548 1.894 22.542 22.542 0 0 1-4.029 0 4.824 4.824 0 0 1-3.548-1.894c-1.083-1.443-1.714-4.42-2.5-7.608-.842-3.338-1.263-5.443-2.285-10.044 0 0-1.022.03-1.473.06-.631.03-1.113.09-1.624.15 0 0 .6 9.472.872 13.5.271 4.21.782 11.337 1.233 16.719a19.961 19.961 0 0 0 2.315.21c1.5.09 2.2.09 2.2.09.631-2.376 1.383-5.653 2.255-7.067a3.051 3.051 0 0 1 2.436-1.353 19.176 19.176 0 0 1 2.165-.15 13.671 13.671 0 0 1 2.165.15 3.051 3.051 0 0 1 2.436 1.353c.872 1.413 1.654 4.691 2.255 7.067 0 0 .662 0 2.165-.09 1.443-.09 2.315-.21 2.315-.21.451-5.383.962-12.479 1.233-16.719.271-4 .872-13.5.872-13.5-.511-.06-1.022-.12-1.624-.15-.451-.03-1.473-.06-1.473-.06"
    fill="#fff" />
  <path
    d="M63.69 8.69c-.6-6.014-4.631-7.277-8.149-7.878C53.766.511 50.609.271 48.59.18 46.82.06 42.67 0 41.407 0S35.99.06 34.22.18c-2.015.09-5.172.331-6.946.631-3.518.6-7.548 1.864-8.149 7.878a53.442 53.442 0 0 0-.18 6.074c.06 3.819.391 6.375.571 8.179a38.91 38.91 0 0 0 1.293 6.8c.9 2.616 1.714 3.368 2.676 4.15a12.608 12.608 0 0 0 5.232 1.985 97.955 97.955 0 0 0 12.72.692 93.17 93.17 0 0 0 12.72-.692c.6-.12 3.488-.541 5.232-1.985.962-.782 1.774-1.534 2.676-4.15a39.428 39.428 0 0 0 1.293-6.8c.18-1.774.511-4.36.571-8.179-.03-2.315-.09-4.45-.241-6.074m-2.225 10.1a50.205 50.205 0 0 1-1.383 9.773 8.045 8.045 0 0 1-2.165 3.909 9.659 9.659 0 0 1-5.172 1.985 91.968 91.968 0 0 1-11.337.571 91.649 91.649 0 0 1-11.337-.571 9.659 9.659 0 0 1-5.172-1.985 8.19 8.19 0 0 1-2.165-3.909 47.929 47.929 0 0 1-1.383-9.773 62.329 62.329 0 0 1 .15-10.1c.451-3.789 2.315-5.683 6.315-6.375a58.866 58.866 0 0 1 6.766-.692c1.925-.12 5.052-.18 6.826-.18 1.744-.03 4.9.06 6.8.18a58.866 58.866 0 0 1 6.766.692c4 .722 5.864 2.616 6.345 6.375a62.214 62.214 0 0 1 .15 10.1"
    fill="#fff" />
</svg>