<svg xmlns="http://www.w3.org/2000/svg" viewBox="0 0 71.542 41.834">
  <path
    d="M35.771 0c8.955 0 18.553 1.824 26.19 6.674 4.963 3.172 9.581 7.983 9.581 14.249 0 7.321-6.251 12.645-12.24 15.76-7.127 3.69-15.548 5.151-23.531 5.151-8.952 0-18.532-1.8-26.172-6.671C4.638 31.988 0 27.18 0 20.926 0 13.572 6.236 8.269 12.24 5.148 19.388 1.464 27.791 0 35.771 0ZM35.7 2.224c-8.326 0-17.3 1.559-24.518 5.911-4.543 2.719-9.032 7-9.032 12.678 0 6.674 6.081 11.345 11.518 14.028 6.731 3.285 14.6 4.561 22.032 4.561 8.341 0 17.316-1.559 24.539-5.911 4.522-2.736 9.029-6.993 9.029-12.678 0-6.686-6.066-11.366-11.518-14.025-6.735-3.291-14.604-4.561-22.05-4.561ZM4.278 16.192l13.7-2.337 4.126-8.952 4.108 8.949 13.7 2.337-13.7 2.361-4.108 8.973-4.126-8.973ZM34.4 23.017l6.045-1.061 1.8-4.051 1.806 4.051 6.049 1.061-6.045 1.043-1.804 4.057-1.8-4.054Zm12.511-10.8 6.045-1.043 1.8-4.069 1.806 4.066 6.049 1.046-6.045 1.064-1.807 4.056-1.806-4.054Zm-6.46 19.158 6.021-1.043 1.809-4.069 1.824 4.069 6.042 1.043-6.042 1.064-1.824 4.054-1.806-4.054ZM21.88 32.844l6.045-1.043 1.824-4.072 1.8 4.072 6.051 1.043-6.045 1.064-1.8 4.051-1.824-4.051Zm30.393-9.995 6.027-1.065 1.8-4.051 1.824 4.051 6.045 1.064-6.045 1.043-1.824 4.046-1.8-4.045Z"
    fill="#fff" />
</svg>