<svg xmlns="http://www.w3.org/2000/svg" viewBox="0 0 64.264 52.543">
  <path data-name="Trazado 1"
    d="M32.056 46.822a5.7 5.7 0 0 1 5.721-5.717 5.719 5.719 0 1 1-5.721 5.717Zm5.721 3.613a3.471 3.471 0 0 0 3.158-3.613 3.422 3.422 0 0 0-3.158-3.613 3.328 3.328 0 0 0-3.161 3.613 3.373 3.373 0 0 0 3.161 3.613m12.188-6.925v8.732h-2.407V43.51H44.1v-1.954h9.181v1.954Zm6.17 6.32-.9 2.411h-2.859l4.514-10.685h3.01l4.366 10.685h-2.86l-.9-2.411Zm2.261-1.8h1.5l-1.5-3.915-1.506 3.915ZM5.718 43.51v8.732H3.31V43.51H0v-1.954h9.03v1.954Zm3.914 3.312a5.718 5.718 0 0 1 11.437 0 5.826 5.826 0 0 1-5.721 5.721 5.767 5.767 0 0 1-5.716-5.721Zm5.716 3.613a3.448 3.448 0 0 0 3.161-3.613 3.4 3.4 0 0 0-3.161-3.613 3.345 3.345 0 0 0-3.157 3.613 3.391 3.391 0 0 0 3.157 3.613m11.139 1.806h1.2v-4.065l4.215-6.62H29.2l-2.71 4.513-2.559-4.513h-2.862l4.215 6.62v4.065Z"
    fill="#fff" />
  <path data-name="Trazado 13"
    d="M2.391 18.036c0-9.96 13.027-18.039 29.098-18.039s29.1 8.076 29.1 18.036-13.027 18.035-29.1 18.035S2.391 27.997 2.391 18.036Zm29.1 16.223c14.349 0 25.982-7.283 25.982-16.268S45.837 1.721 31.489 1.721 5.506 9.007 5.506 17.992 17.138 34.26 31.489 34.26Z"
    fill="#fff" />
  <path data-name="Trazado 14"
    d="M24.654 18.278c0-8.734 3.061-15.982 6.835-15.982s6.837 7.248 6.837 15.982c0 8.827-3.062 15.982-6.837 15.982s-6.835-7.155-6.835-15.982Zm6.835 11.072c2.544 0 4.608-5.009 4.608-11.619 0-6.859-2.064-11.586-4.608-11.586s-4.606 4.726-4.606 11.586c0 6.61 2.062 11.619 4.606 11.619Z"
    fill="#fff" />
  <path data-name="Trazado 15"
    d="M11.83 7.628C12.58 4.659 21.65.337 31.489.337s18.6 3.088 19.659 7.291c1.189 4.711-7.551 8.974-19.659 8.974S10.638 12.339 11.83 7.628Zm19.659-5.331c-8.449 0-15.968 2.214-16.88 5.228-1.022 3.377 6.482 6.432 16.88 6.432s17.9-3.056 16.881-6.432c-.912-3.015-8.43-5.228-16.881-5.228Z"
    fill="#fff" />
</svg>